<?xml version="1.0" encoding="UTF-8"?>
<!DOCTYPE svg PUBLIC "-//W3C//DTD SVG 1.1//EN" "http://www.w3.org/Graphics/SVG/1.1/DTD/svg11.dtd">
<!-- Creator: CorelDRAW 2021 (64-Bit) -->
<svg xmlns="http://www.w3.org/2000/svg" xml:space="preserve" width="132px" height="144px" version="1.1" style="shape-rendering:geometricPrecision; text-rendering:geometricPrecision; image-rendering:optimizeQuality; fill-rule:evenodd; clip-rule:evenodd"
viewBox="0 0 132 144"
 xmlns:xlink="http://www.w3.org/1999/xlink"
 xmlns:xodm="http://www.corel.com/coreldraw/odm/2003">
 <defs>
  <style type="text/css">
   <![CDATA[
    .fil0 {fill:#DE4C36;fill-rule:nonzero}
   ]]>
  </style>
 </defs>
 <g id="Layer_x0020_1">
  <metadata id="CorelCorpID_0Corel-Layer"/>
  <g id="_1637770767888">
   <g>
    <path class="fil0" d="M129.48 66.12l-57.61 -57.6c-3.31,-3.32 -8.69,-3.32 -12.01,0l-11.96 11.96 15.17 15.18c3.53,-1.2 7.57,-0.4 10.38,2.41 2.83,2.83 3.62,6.91 2.4,10.45l14.63 14.63c3.53,-1.22 7.62,-0.43 10.44,2.4 3.95,3.94 3.95,10.34 0,14.29 -3.95,3.95 -10.35,3.95 -14.3,0 -2.97,-2.97 -3.71,-7.33 -2.2,-10.99l-13.64 -13.64 0 35.89c0.96,0.48 1.87,1.11 2.67,1.91 3.95,3.95 3.95,10.35 0,14.3 -3.95,3.95 -10.35,3.95 -14.3,0 -3.95,-3.95 -3.95,-10.35 0,-14.3 0.98,-0.97 2.11,-1.71 3.31,-2.2l0 -36.23c-1.2,-0.49 -2.33,-1.23 -3.31,-2.21 -2.99,-2.99 -3.71,-7.38 -2.17,-11.05l-14.96 -14.96 -39.5 39.5c-3.32,3.32 -3.32,8.7 0,12.02l57.61 57.6c3.31,3.32 8.69,3.32 12.01,0l57.34 -57.33c3.32,-3.32 3.32,-8.71 0,-12.03z"/>
   </g>
  </g>
 </g>
</svg>
